<svg width="196" height="71" viewBox="0 0 196 71" fill="none" xmlns="http://www.w3.org/2000/svg">
<path d="M2.22288 69.1679C1.07088 68.5279 0.430875 67.8239 0.302875 67.0559C0.238875 66.2879 0.686875 64.9439 1.64688 63.0239C2.60688 61.1039 4.11088 58.1279 6.15888 54.0959C7.69488 51.2159 8.84688 48.9759 9.61488 47.3759C10.4469 45.7119 10.9909 44.5279 11.2469 43.8239C11.5669 43.1199 11.7269 42.6719 11.7269 42.4799C11.5989 41.9039 11.6629 41.4559 11.9189 41.1359C12.1749 40.7519 12.5909 40.4319 13.1669 40.1759C13.4869 39.8559 13.9989 39.2799 14.7029 38.4479C15.4709 37.6159 16.1749 36.6239 16.8149 35.4719C17.3909 34.1279 18.0629 32.7519 18.8309 31.3439C19.5989 29.9359 20.6229 28.1759 21.9029 26.0639C23.1829 23.8879 24.8469 21.0719 26.8949 17.6159C28.1749 15.3759 29.5829 13.1039 31.1189 10.7999C32.6549 8.43195 34.2869 6.09595 36.0149 3.79195C36.7189 2.89595 37.3589 2.19195 37.9349 1.67995C38.5109 1.10395 39.0869 0.847944 39.6629 0.911943C40.4309 0.911943 41.2949 1.16795 42.2549 1.67995C43.2789 2.19195 44.2069 2.86394 45.0389 3.69595C45.8709 4.52795 46.4789 5.42395 46.8629 6.38395C47.1829 6.89595 47.3109 7.98395 47.2469 9.64795C47.1829 11.3119 47.0549 13.3279 46.8629 15.6959C46.6709 18.0639 46.4469 20.5919 46.1909 23.2799C45.9989 25.9039 45.7109 29.0079 45.3269 32.5919C44.9429 36.1759 44.5589 39.9199 44.1749 43.8239C43.8549 47.7279 43.5989 51.5039 43.4069 55.1519C43.2149 58.7359 43.2149 61.8719 43.4069 64.5599C43.4709 65.1359 43.4709 65.6799 43.4069 66.1919C43.3429 66.7039 43.3109 67.1199 43.3109 67.4399C42.9269 67.824 42.2869 67.9839 41.3909 67.9199C40.5589 67.9199 39.7269 67.728 38.8949 67.3439C38.1269 66.9599 37.6789 66.4799 37.5509 65.9039C37.3589 65.7119 37.2309 65.4559 37.1669 65.1359C37.1669 64.7519 37.1989 63.9839 37.2629 62.8319C37.3269 61.6799 37.3909 59.8559 37.4549 57.3599L37.9349 41.8079L36.6869 41.9039C36.1109 41.9039 35.0229 41.9679 33.4229 42.0959C31.8229 42.2239 30.0949 42.4159 28.2389 42.6719C26.3829 42.8639 24.6549 43.0879 23.0549 43.3439C21.5189 43.5359 20.4629 43.7279 19.8869 43.9199C19.3109 43.9199 18.6069 44.3039 17.7749 45.0719C17.0069 45.8399 16.2709 46.8319 15.5669 48.0479C15.3109 48.9439 14.8309 49.9039 14.1269 50.9279C13.4869 51.8879 13.1669 52.5279 13.1669 52.8479C12.7189 53.1679 12.3349 53.5519 12.0149 53.9999C11.7589 54.4479 11.6309 54.6719 11.6309 54.6719C11.6309 55.0559 11.3109 56.0159 10.6709 57.5519C10.0949 59.0239 9.35888 60.6879 8.46288 62.5439C7.56688 64.3359 6.67088 65.9039 5.77488 67.2479L3.75888 70.3199L2.22288 69.1679ZM22.0949 38.2559C22.0949 38.2559 22.4149 38.1919 23.0549 38.0639C23.7589 37.9359 24.5589 37.8079 25.4549 37.6799C26.4149 37.4879 27.2789 37.3919 28.0469 37.3919C30.7349 36.7519 32.6869 36.3359 33.9029 36.1439C35.1189 35.8879 35.9509 35.7599 36.3989 35.7599C36.9109 35.7599 37.3589 35.8559 37.7429 36.0479C37.9989 36.3679 38.2229 36.5599 38.4149 36.6239C38.6709 36.6879 38.7989 36.7199 38.7989 36.7199C38.8629 36.5919 38.9589 35.8559 39.0869 34.5119C39.2149 33.1679 39.3749 31.5039 39.5669 29.5199C39.8229 27.5359 40.0469 25.4879 40.2389 23.3759C40.4949 21.1999 40.6869 19.2159 40.8149 17.4239C40.9429 15.5679 41.0389 14.1599 41.1029 13.1999C41.1669 11.9839 41.2309 10.8959 41.2949 9.93595C41.3589 8.91195 41.3909 8.39995 41.3909 8.39995C41.0069 8.39995 40.1749 9.10395 38.8949 10.5119C37.6789 11.9199 36.3029 13.7759 34.7669 16.0799C33.2309 18.3839 31.7909 20.8479 30.4469 23.4719C29.8069 24.6879 29.1989 25.7759 28.6229 26.7359C28.0469 27.6959 27.5989 28.1759 27.2789 28.1759C27.1509 28.3039 26.7669 28.8799 26.1269 29.9039C25.5509 30.8639 24.9109 31.9839 24.2069 33.2639C23.5029 34.4799 22.9269 35.5999 22.4789 36.6239C22.0309 37.5839 21.9029 38.1279 22.0949 38.2559ZM57.0456 60.1439C56.5976 59.7599 56.0216 58.6079 55.3176 56.6879C54.6776 54.7679 54.0376 52.5279 53.3976 49.9679C52.8216 47.3439 52.3416 44.9439 51.9576 42.7679C51.7016 41.4879 51.4136 40.3999 51.0936 39.5039C50.8376 38.6079 50.6136 37.8719 50.4216 37.2959C50.1016 36.1439 50.0056 35.1839 50.1336 34.4159C50.2616 33.6479 50.7096 33.0399 51.4776 32.5919C51.7976 32.3999 52.1816 32.2719 52.6296 32.2079C53.1416 32.0799 53.5256 32.0479 53.7816 32.1119C54.5496 32.3679 55.2536 33.5519 55.8936 35.6639C56.5336 37.7119 57.1096 40.4319 57.6216 43.8239C57.8776 45.8079 58.1976 47.5039 58.5816 48.9119C58.9656 50.3199 59.1576 51.1519 59.1576 51.4079C59.4136 51.9199 59.7016 52.4319 60.0216 52.9439C60.4056 53.3919 60.8536 53.3599 61.3656 52.8479C61.6216 52.5919 62.1336 52.0159 62.9016 51.1199C63.7336 50.2239 64.5336 49.2639 65.3016 48.2399C66.6456 46.4479 67.7016 44.9759 68.4696 43.8239C69.3016 42.6719 70.2296 41.4559 71.2536 40.1759C71.7016 39.5359 72.2136 38.8319 72.7896 38.0639C73.3656 37.2959 73.9416 36.5919 74.5176 35.9519C75.1576 35.2479 75.7336 34.8319 76.2456 34.7039C77.7816 34.4479 78.6136 34.7679 78.7416 35.6639C78.8696 36.5599 78.2936 37.9039 77.0136 39.6959C76.5016 40.4639 76.0856 41.1999 75.7656 41.9039C75.5096 42.5439 75.2536 42.9919 74.9976 43.2479C74.4856 44.2719 73.6856 45.5839 72.5976 47.1839C71.5096 48.7199 70.4536 50.1599 69.4296 51.5039C68.4056 52.7839 67.7016 53.6159 67.3176 53.9999C67.0616 54.2559 66.4856 54.7359 65.5896 55.4399C64.7576 56.1439 63.9576 57.0399 63.1896 58.1279C61.6536 59.5999 60.4376 60.4959 59.5416 60.8159C58.6456 61.1359 57.8136 60.9119 57.0456 60.1439ZM93.9149 62.6399C92.5709 63.7919 91.0029 64.4639 89.2109 64.6559C87.4829 64.8479 85.7869 64.5919 84.1229 63.8879C82.4589 63.1199 81.0829 61.9679 79.9949 60.4319C78.9069 59.0239 78.2029 57.4239 77.8829 55.6319C77.5629 53.7759 77.5309 51.3759 77.7869 48.4319C77.9789 45.9359 78.7789 43.4399 80.1869 40.9439C81.5949 38.3839 83.2909 36.1119 85.2749 34.1279C87.3229 32.1439 89.3389 30.7679 91.3229 29.9999C92.2829 29.3599 93.0829 29.0719 93.7229 29.1359C94.4269 29.1359 95.4829 29.1999 96.8909 29.3279C98.3629 29.5199 99.4509 29.8079 100.155 30.1919C100.923 30.5759 101.531 31.0879 101.979 31.7279C102.939 32.6879 103.579 33.6479 103.899 34.6079C104.219 35.5039 104.379 36.3999 104.379 37.2959C104.123 38.7039 103.163 40.4319 101.499 42.4799C99.8989 44.4639 97.7869 46.0959 95.1629 47.3759C93.7549 47.8239 92.2189 48.0159 90.5549 47.9519C88.8909 47.8879 87.5149 47.4719 86.4269 46.7039C85.2109 46.1919 84.4109 46.2879 84.0269 46.9919C83.6429 47.6319 83.2909 49.2319 82.9709 51.7919C82.7149 54.2239 82.9069 56.0159 83.5469 57.1679C84.1869 58.2559 85.0509 58.8959 86.1389 59.0879C87.4189 59.3439 88.4109 59.5359 89.1149 59.6639C89.8829 59.7279 90.8109 59.4399 91.8989 58.7999C92.9229 58.1599 93.5629 57.8079 93.8189 57.7439C94.0749 57.6159 94.2669 57.4879 94.3949 57.3599C94.5869 57.1679 95.0029 56.7519 95.6429 56.1119C96.0909 55.6639 96.4429 55.3439 96.6989 55.1519C96.9549 54.8959 97.2429 54.7679 97.5629 54.7679C97.8829 54.7679 98.1709 54.9279 98.4269 55.2479C98.6829 55.5039 98.9389 55.6959 99.1949 55.8239C99.8349 55.8239 99.9629 56.2079 99.5789 56.9759C99.2589 57.7439 98.5869 58.6719 97.5629 59.7599C96.5389 60.7839 95.3229 61.7439 93.9149 62.6399ZM93.8189 42.2879C94.5229 41.9679 95.2589 41.5199 96.0269 40.9439C96.7949 40.3039 97.4349 39.6319 97.9469 38.9279C98.5229 38.1599 98.8109 37.5199 98.8109 37.0079C98.8109 36.1119 98.3949 35.3759 97.5629 34.7999C96.7309 34.1599 95.4829 34.0639 93.8189 34.5119C93.1149 34.7039 92.3149 35.1839 91.4189 35.9519C90.5229 36.6559 89.6589 37.4559 88.8269 38.3519C88.0589 39.2479 87.4189 40.0479 86.9069 40.7519C86.4589 41.4559 86.2989 41.8719 86.4269 41.9999C86.6189 42.3199 87.1629 42.5759 88.0589 42.7679C88.9549 42.8959 89.9469 42.9279 91.0349 42.8639C92.1869 42.7999 93.1149 42.6079 93.8189 42.2879ZM113.518 65.1359C111.918 65.2639 110.382 65.1679 108.91 64.8479C107.502 64.5279 106.286 63.9839 105.262 63.2159C104.302 62.3839 103.63 61.3919 103.246 60.2399C102.798 59.3439 102.574 58.7359 102.574 58.4159C102.574 58.0319 102.798 57.7119 103.246 57.4559C103.758 57.4559 104.206 57.6159 104.59 57.9359C105.038 58.1919 105.614 58.4799 106.318 58.7999C107.278 59.6319 108.43 60.0799 109.774 60.1439C111.182 60.2079 112.462 59.9839 113.614 59.4719C114.766 58.9599 115.406 58.3199 115.534 57.5519C115.534 57.2959 115.438 56.8479 115.246 56.2079C115.054 55.5679 114.83 54.8959 114.574 54.1919C112.846 51.7599 111.566 49.3599 110.734 46.9919C109.966 44.5599 109.582 42.5759 109.582 41.0399C109.582 39.8879 109.934 38.6719 110.638 37.3919C111.342 36.0479 112.302 34.9279 113.518 34.0319C114.67 32.8159 115.95 31.7279 117.358 30.7679C118.766 29.8079 120.174 28.9759 121.582 28.2719C123.054 27.5679 124.366 27.0559 125.518 26.7359C126.222 26.7359 127.15 26.8319 128.302 27.0239C129.454 27.2159 130.254 27.4399 130.702 27.6959C131.406 27.9519 132.078 28.6559 132.718 29.8079C133.358 30.8959 133.678 31.9839 133.678 33.0719C133.678 33.5199 133.55 34.0959 133.294 34.7999C133.038 35.5039 132.622 36.3359 132.046 37.2959C131.79 37.9999 131.502 38.6719 131.182 39.3119C130.862 39.8879 130.702 40.3039 130.702 40.5599C130.382 41.2639 129.934 41.6159 129.358 41.6159C128.846 41.5519 128.302 41.2639 127.726 40.7519C127.214 40.1759 126.798 39.5039 126.478 38.7359C126.222 37.7759 126.126 37.0079 126.19 36.4319C126.254 35.7919 126.51 35.1199 126.958 34.4159C127.662 33.7119 128.014 33.2319 128.014 32.9759C128.014 32.7199 127.662 32.5919 126.958 32.5919C126.51 32.5919 125.678 32.8799 124.462 33.4559C123.31 33.9679 122.062 34.6719 120.718 35.5679C119.438 36.3999 118.318 37.2959 117.358 38.2559C116.142 39.4079 115.406 40.2399 115.15 40.7519C114.958 41.2639 114.862 42.0639 114.862 43.1519C114.862 44.0479 115.054 45.1679 115.438 46.5119C115.886 47.8559 116.334 48.7519 116.782 49.1999C116.782 49.1999 117.006 49.6479 117.454 50.5439C117.902 51.3759 118.446 52.2719 119.086 53.2319C120.942 57.3279 121.422 60.2719 120.526 62.0639C119.63 63.8559 117.294 64.8799 113.518 65.1359ZM142.108 64.6559C138.908 64.6559 136.572 63.5039 135.1 61.1999C134.652 60.5599 134.428 59.9199 134.428 59.2799C134.492 58.5759 134.684 58.0959 135.004 57.8399C135.388 57.5839 135.836 57.8079 136.348 58.5119C137.244 59.0239 138.524 59.2799 140.188 59.2799C141.02 59.2799 141.884 59.2159 142.78 59.0879C143.676 58.8959 144.572 58.6399 145.468 58.3199C146.428 57.8719 147.068 57.4879 147.388 57.1679C147.708 56.7839 147.644 56.4639 147.196 56.2079H147.292C145.628 55.7599 143.932 55.0559 142.204 54.0959C140.54 53.0719 139.1 51.9839 137.884 50.8319C136.668 49.6159 135.964 48.5279 135.772 47.5679C135.26 45.5839 135.388 43.5679 136.156 41.5199C136.924 39.4079 138.012 37.5519 139.42 35.9519C139.932 35.6319 140.572 35.2479 141.34 34.7999C142.108 34.2879 142.716 33.9999 143.164 33.9359V34.0319C144.38 32.7519 145.852 31.7279 147.58 30.9599C149.372 30.1919 151.26 29.4879 153.244 28.8479L154.684 28.6559C155.452 28.5279 156.092 28.4639 156.604 28.4639C156.54 28.4639 156.668 28.5279 156.988 28.6559C157.308 28.7199 157.596 28.7839 157.852 28.8479C158.236 29.0399 158.556 29.1359 158.812 29.1359C159.644 29.2639 160.412 29.6479 161.116 30.2879C161.82 30.9279 162.364 31.6959 162.748 32.5919C163.196 33.4239 163.356 34.2239 163.228 34.9919C163.1 36.2079 162.716 37.2959 162.076 38.2559C161.5 39.2159 160.796 39.7599 159.964 39.8879C160.092 39.8239 159.996 39.7279 159.676 39.5999C159.42 39.4079 159.132 39.2159 158.812 39.0239L158.524 39.2159C158.524 39.2159 158.492 39.1519 158.428 39.0239C158.428 38.8319 158.364 38.6079 158.236 38.3519C158.044 37.9679 157.948 37.5519 157.948 37.1039C157.948 36.5919 157.98 36.0479 158.044 35.4719C158.172 34.7679 158.172 34.3519 158.044 34.2239C157.98 34.0959 157.564 33.9999 156.796 33.9359C155.9 33.7439 154.588 33.9039 152.86 34.4159C151.196 34.9279 149.788 35.6319 148.636 36.5279C147.228 37.4239 146.044 38.2879 145.084 39.1199C144.124 39.8879 143.356 40.6559 142.78 41.4239C142.204 42.1279 141.692 42.9599 141.244 43.9199C140.924 44.3679 140.636 44.8159 140.38 45.2639C140.188 45.6479 140.092 45.9999 140.092 46.3199C140.092 47.0239 140.604 47.7599 141.628 48.5279C142.716 49.2319 144.316 50.0639 146.428 51.0239C148.092 51.7279 149.5 52.4959 150.652 53.3279C151.804 54.1599 152.604 55.1199 153.052 56.2079C153.18 56.4639 153.212 56.7839 153.148 57.1679C153.148 57.4879 153.084 57.7119 152.956 57.8399C153.084 57.9679 153.148 58.0639 153.148 58.1279V58.0319C153.66 58.7999 153.66 59.5999 153.148 60.4319C152.7 61.2639 151.9 61.9999 150.748 62.6399C149.66 63.2159 148.316 63.6639 146.716 63.9839H146.812C145.98 64.2399 145.148 64.4319 144.316 64.5599C143.548 64.6239 142.812 64.6559 142.108 64.6559ZM172.235 62.3519C170.891 62.6079 170.027 62.7039 169.643 62.6399C169.323 62.5119 168.811 62.1279 168.107 61.4879C167.083 60.9759 166.219 60.3359 165.515 59.5679C164.875 58.7999 164.395 57.9999 164.075 57.1679C163.819 56.2719 163.723 55.5359 163.787 54.9599C163.979 52.7199 164.523 50.3199 165.419 47.7599C166.315 45.1999 167.403 42.7359 168.683 40.3679C169.963 37.9999 171.339 35.9839 172.811 34.3199C174.347 32.5919 175.819 31.4719 177.227 30.9599C178.507 30.4479 179.723 30.2559 180.875 30.3839C182.027 30.5119 182.859 31.1199 183.371 32.2079C184.331 34.0639 184.107 35.2479 182.699 35.7599C182.507 35.7599 182.283 35.8559 182.027 36.0479C181.771 36.1759 181.643 36.3679 181.643 36.6239C181.899 36.7519 182.603 36.7839 183.755 36.7199C184.907 36.5919 186.059 36.3999 187.211 36.1439C188.427 35.8239 189.227 35.5039 189.611 35.1839C189.995 34.9919 190.283 34.8959 190.475 34.8959C190.667 34.8959 191.147 34.9599 191.915 35.0879C193.003 35.4079 193.547 35.7919 193.547 36.2399C193.547 36.4959 193.643 36.7519 193.835 37.0079C194.027 37.1999 194.251 37.2959 194.507 37.2959C194.955 37.3599 194.891 37.6479 194.315 38.1599C193.803 38.6719 192.907 39.3759 191.627 40.2719C190.411 41.0399 189.643 41.5519 189.323 41.8079C189.067 41.9999 189.035 42.4479 189.227 43.1519C189.739 44.3679 189.771 45.7759 189.323 47.3759C188.875 48.9759 188.075 50.6079 186.923 52.2719C185.771 53.9359 184.363 55.5039 182.699 56.9759C181.099 58.3839 179.371 59.5999 177.515 60.6239C175.723 61.5839 173.963 62.1599 172.235 62.3519ZM170.603 58.1279C170.859 58.1279 171.307 57.9999 171.947 57.7439C172.587 57.4239 173.099 57.1679 173.483 56.9759C173.739 56.7199 174.059 56.4319 174.443 56.1119C174.891 55.7279 175.243 55.5039 175.499 55.4399C175.755 55.4399 176.075 55.3439 176.459 55.1519C176.843 54.8959 177.387 54.4159 178.091 53.7119C178.795 52.9439 179.723 51.8239 180.875 50.3519C182.155 48.9439 183.147 47.6639 183.851 46.5119C184.555 45.2959 184.747 44.1759 184.427 43.1519C184.363 42.8959 184.171 42.7359 183.851 42.6719C183.595 42.6079 183.243 42.4479 182.795 42.1919C182.155 42.1919 181.547 42.0319 180.971 41.7119C180.459 41.3279 179.851 40.8479 179.147 40.2719L177.611 38.3519L175.979 39.9839C174.955 41.0079 173.867 42.5439 172.715 44.5919C171.627 46.5759 170.699 48.6239 169.931 50.7359C169.163 52.7839 168.715 54.4159 168.587 55.6319C168.523 56.5919 168.683 57.2319 169.067 57.5519C169.451 57.8719 169.963 58.0639 170.603 58.1279Z" fill="#2C2C2C"/>
</svg>
