<svg width="484" height="416" viewBox="0 0 484 416" fill="none" xmlns="http://www.w3.org/2000/svg">
<path fill-rule="evenodd" clip-rule="evenodd" d="M127.093 255.071C151.357 255.05 165.68 239.79 188.438 215.546C201.589 201.533 217.56 184.518 239.895 165.71C240.564 165.145 241.104 164.44 241.472 163.645C241.842 162.848 242.034 161.984 242.034 161.106H127.011C127.021 161.106 127.032 161.106 127.043 161.106C101.614 161.106 81 182.13 81 208.088C81 234.03 101.59 255.047 126.998 255.071H127.093Z" fill="url(#paint0_linear_771_1100)"/>
<path fill-rule="evenodd" clip-rule="evenodd" d="M97.1691 146.334C114.34 163.472 135.257 162.808 168.489 161.758C187.697 161.149 211.021 160.41 240.115 162.904C240.989 162.977 241.868 162.861 242.691 162.558C243.515 162.258 244.262 161.78 244.883 161.16C245.103 160.94 245.305 160.701 245.49 160.452L160.433 76.3731C161.409 77.5727 162.455 78.7333 163.572 79.8498C145.59 61.8687 116.148 62.1594 97.7927 80.5144C79.4501 98.8575 79.1474 128.272 97.0919 146.257L97.1691 146.334Z" fill="url(#paint1_linear_771_1100)"/>
<path d="M196.052 0C222.011 0 243.035 20.6135 243.035 46.0428C243.035 20.6135 264.06 0 290.017 0C315.976 0 337 20.6135 337 46.0428C337 84.3687 299.015 97.8882 247.639 158.894C247.073 159.565 246.368 160.102 245.574 160.473C244.779 160.843 243.912 161.033 243.035 161.033C242.159 161.033 241.292 160.843 240.498 160.473C239.703 160.102 238.996 159.565 238.43 158.894C187.056 97.8882 149.07 84.3687 149.07 46.0428C149.07 20.6135 170.095 0 196.052 0Z" fill="url(#paint2_linear_771_1100)"/>
<path d="M3.38375 367L44.3438 255H67.3838L108.344 367H86.5838L77.7838 341.56H33.7838L24.8238 367H3.38375ZM39.5438 325.08H72.0238L55.7038 278.52L39.5438 325.08ZM291.449 368.92C285.475 368.92 279.875 367.853 274.649 365.72C269.422 363.48 265.102 360.333 261.689 356.28C258.382 352.227 256.569 347.48 256.249 342.04H276.729C277.262 345.453 278.915 348.12 281.689 350.04C284.569 351.96 287.769 352.92 291.289 352.92C294.275 352.92 297.049 352.28 299.609 351C302.275 349.613 303.609 347.48 303.609 344.6C303.609 342.36 302.649 340.6 300.729 339.32C298.809 338.04 296.569 337.027 294.009 336.28C291.449 335.533 289.102 334.893 286.969 334.36C281.635 333.08 276.782 331.587 272.409 329.88C268.035 328.067 264.569 325.613 262.009 322.52C259.449 319.32 258.169 315.107 258.169 309.88C258.169 304.76 259.609 300.387 262.489 296.76C265.475 293.133 269.369 290.413 274.169 288.6C279.075 286.68 284.355 285.72 290.009 285.72C298.862 285.72 306.329 287.96 312.409 292.44C318.489 296.92 321.795 303.533 322.329 312.28H302.969C302.649 308.867 301.209 306.307 298.649 304.6C296.195 302.787 293.102 301.88 289.369 301.88C286.382 301.88 283.715 302.413 281.369 303.48C279.022 304.547 277.849 306.573 277.849 309.56C277.849 311.693 278.809 313.453 280.729 314.84C282.649 316.12 284.942 317.187 287.609 318.04C290.275 318.787 292.622 319.427 294.649 319.96C300.195 321.347 305.049 322.947 309.209 324.76C313.475 326.573 316.835 329.027 319.289 332.12C321.742 335.213 323.022 339.373 323.129 344.6C323.129 349.827 321.635 354.253 318.649 357.88C315.769 361.507 311.929 364.28 307.129 366.2C302.329 368.013 297.102 368.92 291.449 368.92Z" fill="#F82167"/>
<path d="M125.731 367L95.9712 287.64H117.731L138.211 348.6L158.531 287.64H180.131L150.371 367H125.731ZM360.83 368.92C354.857 368.92 349.257 367.853 344.03 365.72C338.803 363.48 334.483 360.333 331.07 356.28C327.763 352.227 325.95 347.48 325.63 342.04H346.11C346.643 345.453 348.297 348.12 351.07 350.04C353.95 351.96 357.15 352.92 360.67 352.92C363.657 352.92 366.43 352.28 368.99 351C371.657 349.613 372.99 347.48 372.99 344.6C372.99 342.36 372.03 340.6 370.11 339.32C368.19 338.04 365.95 337.027 363.39 336.28C360.83 335.533 358.483 334.893 356.35 334.36C351.017 333.08 346.163 331.587 341.79 329.88C337.417 328.067 333.95 325.613 331.39 322.52C328.83 319.32 327.55 315.107 327.55 309.88C327.55 304.76 328.99 300.387 331.87 296.76C334.857 293.133 338.75 290.413 343.55 288.6C348.457 286.68 353.737 285.72 359.39 285.72C368.243 285.72 375.71 287.96 381.79 292.44C387.87 296.92 391.177 303.533 391.71 312.28H372.35C372.03 308.867 370.59 306.307 368.03 304.6C365.577 302.787 362.483 301.88 358.75 301.88C355.763 301.88 353.097 302.413 350.75 303.48C348.403 304.547 347.23 306.573 347.23 309.56C347.23 311.693 348.19 313.453 350.11 314.84C352.03 316.12 354.323 317.187 356.99 318.04C359.657 318.787 362.003 319.427 364.03 319.96C369.577 321.347 374.43 322.947 378.59 324.76C382.857 326.573 386.217 329.027 388.67 332.12C391.123 335.213 392.403 339.373 392.51 344.6C392.51 349.827 391.017 354.253 388.03 357.88C385.15 361.507 381.31 364.28 376.51 366.2C371.71 368.013 366.483 368.92 360.83 368.92Z" fill="#428DD3"/>
<path d="M214.851 368.92C206.531 368.92 199.331 367.107 193.251 363.48C187.278 359.853 182.638 354.893 179.331 348.6C176.025 342.307 174.371 335.213 174.371 327.32C174.371 318.893 176.078 311.587 179.491 305.4C182.905 299.213 187.651 294.413 193.731 291C199.811 287.48 206.851 285.72 214.851 285.72C222.745 285.72 229.625 287.427 235.491 290.84C241.465 294.253 246.105 298.947 249.411 304.92C252.825 310.893 254.531 317.773 254.531 325.56C254.531 326.947 254.478 328.333 254.371 329.72C254.265 331 254.105 332.227 253.891 333.4H195.011C195.331 337.133 196.291 340.44 197.891 343.32C199.598 346.093 201.838 348.28 204.611 349.88C207.491 351.373 210.745 352.12 214.371 352.12C218.105 352.12 221.305 351.32 223.971 349.72C226.745 348.12 228.931 345.667 230.531 342.36H252.451C250.958 347.053 248.558 351.427 245.251 355.48C241.945 359.533 237.731 362.787 232.611 365.24C227.598 367.693 221.678 368.92 214.851 368.92ZM195.171 319.8H233.411C233.305 314.467 231.331 310.253 227.491 307.16C223.758 304.067 219.331 302.52 214.211 302.52C209.838 302.52 205.785 303.907 202.051 306.68C198.318 309.347 196.025 313.72 195.171 319.8ZM436.451 368.92C428.451 368.92 421.305 367.213 415.011 363.8C408.825 360.28 403.971 355.373 400.451 349.08C396.931 342.787 395.171 335.533 395.171 327.32C395.171 318.68 397.038 311.267 400.771 305.08C404.611 298.787 409.678 293.987 415.971 290.68C422.371 287.373 429.411 285.72 437.091 285.72C445.091 285.72 452.238 287.48 458.531 291C464.825 294.413 469.785 299.213 473.411 305.4C477.145 311.587 479.011 318.893 479.011 327.32C479.011 335.32 477.198 342.467 473.571 348.76C469.945 355.053 464.931 360.013 458.531 363.64C452.238 367.16 444.878 368.92 436.451 368.92ZM436.771 351.16C441.038 351.16 444.718 350.093 447.811 347.96C451.011 345.72 453.518 342.787 455.331 339.16C457.145 335.427 458.051 331.373 458.051 327C458.051 321.987 457.038 317.72 455.011 314.2C453.091 310.68 450.531 308.013 447.331 306.2C444.131 304.387 440.611 303.48 436.771 303.48C432.611 303.48 428.931 304.493 425.731 306.52C422.638 308.547 420.185 311.373 418.371 315C416.665 318.52 415.811 322.627 415.811 327.32C415.811 332.013 416.718 336.173 418.531 339.8C420.451 343.427 423.011 346.253 426.211 348.28C429.411 350.2 432.931 351.16 436.771 351.16Z" fill="url(#paint3_linear_771_1100)"/>
<defs>
<linearGradient id="paint0_linear_771_1100" x1="161.171" y1="166.541" x2="161.171" y2="160.903" gradientUnits="userSpaceOnUse">
<stop stop-color="#428DD3"/>
<stop offset="1" stop-color="#164674"/>
</linearGradient>
<linearGradient id="paint1_linear_771_1100" x1="183.446" y1="109.143" x2="188.814" y2="103.776" gradientUnits="userSpaceOnUse">
<stop stop-color="#F82167"/>
<stop offset="1" stop-color="#931B5D"/>
</linearGradient>
<linearGradient id="paint2_linear_771_1100" x1="243.035" y1="0" x2="243.035" y2="161.033" gradientUnits="userSpaceOnUse">
<stop stop-color="#FE8336"/>
<stop offset="1" stop-color="#F5105A"/>
</linearGradient>
<linearGradient id="paint3_linear_771_1100" x1="242" y1="208" x2="242" y2="416" gradientUnits="userSpaceOnUse">
<stop stop-color="#FE8336"/>
<stop offset="1" stop-color="#F5105A"/>
</linearGradient>
</defs>
</svg>
