<svg width="477" height="114" viewBox="0 0 477 114" fill="none" xmlns="http://www.w3.org/2000/svg">
<path d="M0.38375 112L41.3438 -7.62939e-06H64.3838L105.344 112H83.5838L74.7838 86.56H30.7838L21.8238 112H0.38375ZM36.5438 70.08H69.0238L52.7038 23.52L36.5438 70.08ZM288.449 113.92C282.475 113.92 276.875 112.853 271.649 110.72C266.422 108.48 262.102 105.333 258.689 101.28C255.382 97.2267 253.569 92.48 253.249 87.04H273.729C274.262 90.4533 275.915 93.12 278.689 95.04C281.569 96.96 284.769 97.92 288.289 97.92C291.275 97.92 294.049 97.28 296.609 96C299.275 94.6133 300.609 92.48 300.609 89.6C300.609 87.36 299.649 85.6 297.729 84.32C295.809 83.04 293.569 82.0267 291.009 81.28C288.449 80.5333 286.102 79.8933 283.969 79.36C278.635 78.08 273.782 76.5867 269.409 74.88C265.035 73.0667 261.569 70.6133 259.009 67.52C256.449 64.32 255.169 60.1067 255.169 54.88C255.169 49.76 256.609 45.3867 259.489 41.76C262.475 38.1333 266.369 35.4133 271.169 33.6C276.075 31.68 281.355 30.72 287.009 30.72C295.862 30.72 303.329 32.96 309.409 37.44C315.489 41.92 318.795 48.5333 319.329 57.28H299.969C299.649 53.8667 298.209 51.3067 295.649 49.6C293.195 47.7867 290.102 46.88 286.369 46.88C283.382 46.88 280.715 47.4133 278.369 48.48C276.022 49.5467 274.849 51.5733 274.849 54.56C274.849 56.6933 275.809 58.4533 277.729 59.84C279.649 61.12 281.942 62.1867 284.609 63.04C287.275 63.7867 289.622 64.4267 291.649 64.96C297.195 66.3467 302.049 67.9467 306.209 69.76C310.475 71.5733 313.835 74.0267 316.289 77.12C318.742 80.2133 320.022 84.3733 320.129 89.6C320.129 94.8267 318.635 99.2533 315.649 102.88C312.769 106.507 308.929 109.28 304.129 111.2C299.329 113.013 294.102 113.92 288.449 113.92Z" fill="#F82167"/>
<path d="M122.731 112L92.9712 32.64H114.731L135.211 93.6L155.531 32.64H177.131L147.371 112H122.731ZM357.83 113.92C351.857 113.92 346.257 112.853 341.03 110.72C335.803 108.48 331.483 105.333 328.07 101.28C324.763 97.2267 322.95 92.48 322.63 87.04H343.11C343.643 90.4533 345.297 93.12 348.07 95.04C350.95 96.96 354.15 97.92 357.67 97.92C360.657 97.92 363.43 97.28 365.99 96C368.657 94.6133 369.99 92.48 369.99 89.6C369.99 87.36 369.03 85.6 367.11 84.32C365.19 83.04 362.95 82.0267 360.39 81.28C357.83 80.5333 355.483 79.8933 353.35 79.36C348.017 78.08 343.163 76.5867 338.79 74.88C334.417 73.0667 330.95 70.6133 328.39 67.52C325.83 64.32 324.55 60.1067 324.55 54.88C324.55 49.76 325.99 45.3867 328.87 41.76C331.857 38.1333 335.75 35.4133 340.55 33.6C345.457 31.68 350.737 30.72 356.39 30.72C365.243 30.72 372.71 32.96 378.79 37.44C384.87 41.92 388.177 48.5333 388.71 57.28H369.35C369.03 53.8667 367.59 51.3067 365.03 49.6C362.577 47.7867 359.483 46.88 355.75 46.88C352.763 46.88 350.097 47.4133 347.75 48.48C345.403 49.5467 344.23 51.5733 344.23 54.56C344.23 56.6933 345.19 58.4533 347.11 59.84C349.03 61.12 351.323 62.1867 353.99 63.04C356.657 63.7867 359.003 64.4267 361.03 64.96C366.577 66.3467 371.43 67.9467 375.59 69.76C379.857 71.5733 383.217 74.0267 385.67 77.12C388.123 80.2133 389.403 84.3733 389.51 89.6C389.51 94.8267 388.017 99.2533 385.03 102.88C382.15 106.507 378.31 109.28 373.51 111.2C368.71 113.013 363.483 113.92 357.83 113.92Z" fill="#428DD3"/>
<path d="M211.851 113.92C203.531 113.92 196.331 112.107 190.251 108.48C184.278 104.853 179.638 99.8933 176.331 93.6C173.025 87.3067 171.371 80.2133 171.371 72.32C171.371 63.8933 173.078 56.5867 176.491 50.4C179.905 44.2133 184.651 39.4133 190.731 36C196.811 32.48 203.851 30.72 211.851 30.72C219.745 30.72 226.625 32.4267 232.491 35.84C238.465 39.2533 243.105 43.9467 246.411 49.92C249.825 55.8933 251.531 62.7733 251.531 70.56C251.531 71.9467 251.478 73.3333 251.371 74.72C251.265 76 251.105 77.2267 250.891 78.4H192.011C192.331 82.1333 193.291 85.44 194.891 88.32C196.598 91.0933 198.838 93.28 201.611 94.88C204.491 96.3733 207.745 97.12 211.371 97.12C215.105 97.12 218.305 96.32 220.971 94.72C223.745 93.12 225.931 90.6667 227.531 87.36H249.451C247.958 92.0533 245.558 96.4267 242.251 100.48C238.945 104.533 234.731 107.787 229.611 110.24C224.598 112.693 218.678 113.92 211.851 113.92ZM192.171 64.8H230.411C230.305 59.4667 228.331 55.2533 224.491 52.16C220.758 49.0667 216.331 47.52 211.211 47.52C206.838 47.52 202.785 48.9067 199.051 51.68C195.318 54.3467 193.025 58.72 192.171 64.8ZM433.451 113.92C425.451 113.92 418.305 112.213 412.011 108.8C405.825 105.28 400.971 100.373 397.451 94.08C393.931 87.7867 392.171 80.5333 392.171 72.32C392.171 63.68 394.038 56.2667 397.771 50.08C401.611 43.7867 406.678 38.9867 412.971 35.68C419.371 32.3733 426.411 30.72 434.091 30.72C442.091 30.72 449.238 32.48 455.531 36C461.825 39.4133 466.785 44.2133 470.411 50.4C474.145 56.5867 476.011 63.8933 476.011 72.32C476.011 80.32 474.198 87.4667 470.571 93.76C466.945 100.053 461.931 105.013 455.531 108.64C449.238 112.16 441.878 113.92 433.451 113.92ZM433.771 96.16C438.038 96.16 441.718 95.0933 444.811 92.96C448.011 90.72 450.518 87.7867 452.331 84.16C454.145 80.4267 455.051 76.3733 455.051 72C455.051 66.9867 454.038 62.72 452.011 59.2C450.091 55.68 447.531 53.0133 444.331 51.2C441.131 49.3867 437.611 48.48 433.771 48.48C429.611 48.48 425.931 49.4933 422.731 51.52C419.638 53.5467 417.185 56.3733 415.371 60C413.665 63.52 412.811 67.6267 412.811 72.32C412.811 77.0133 413.718 81.1733 415.531 84.8C417.451 88.4267 420.011 91.2533 423.211 93.28C426.411 95.2 429.931 96.16 433.771 96.16Z" fill="url(#paint0_linear_771_1098)"/>
<defs>
<linearGradient id="paint0_linear_771_1098" x1="239" y1="-47" x2="239" y2="161" gradientUnits="userSpaceOnUse">
<stop stop-color="#FE8336"/>
<stop offset="1" stop-color="#F5105A"/>
</linearGradient>
</defs>
</svg>
