<svg width="256" height="256" viewBox="0 0 256 256" fill="none" xmlns="http://www.w3.org/2000/svg">
<path fill-rule="evenodd" clip-rule="evenodd" d="M46.0929 255.071C70.3573 255.05 84.68 239.79 107.438 215.546C120.589 201.533 136.56 184.518 158.895 165.71C159.564 165.145 160.104 164.44 160.472 163.645C160.842 162.848 161.034 161.984 161.034 161.106H46.0107C46.0214 161.106 46.0321 161.106 46.0429 161.106C20.6137 161.106 0 182.13 0 208.088C0 234.03 20.5896 255.047 45.9983 255.071H46.0929Z" fill="url(#paint0_linear_769_1097)"/>
<path fill-rule="evenodd" clip-rule="evenodd" d="M16.1691 146.334C33.3403 163.472 54.2569 162.808 87.4895 161.758C106.697 161.149 130.021 160.41 159.115 162.904C159.989 162.977 160.868 162.861 161.691 162.558C162.515 162.258 163.262 161.78 163.883 161.16C164.103 160.94 164.305 160.701 164.49 160.452L79.4333 76.3731C80.409 77.5727 81.4551 78.7333 82.5716 79.8498C64.5904 61.8687 35.1476 62.1594 16.7927 80.5144C-1.54987 98.8575 -1.85262 128.272 16.0919 146.257L16.1691 146.334Z" fill="url(#paint1_linear_769_1097)"/>
<path d="M115.052 0C141.011 0 162.035 20.6135 162.035 46.0428C162.035 20.6135 183.06 0 209.017 0C234.976 0 256 20.6135 256 46.0428C256 84.3687 218.015 97.8882 166.639 158.894C166.073 159.565 165.368 160.102 164.574 160.473C163.779 160.843 162.912 161.033 162.035 161.033C161.159 161.033 160.292 160.843 159.498 160.473C158.703 160.102 157.996 159.565 157.43 158.894C106.056 97.8882 68.0703 84.3687 68.0703 46.0428C68.0703 20.6135 89.095 0 115.052 0Z" fill="url(#paint2_linear_769_1097)"/>
<defs>
<linearGradient id="paint0_linear_769_1097" x1="80.1713" y1="166.541" x2="80.1713" y2="160.903" gradientUnits="userSpaceOnUse">
<stop stop-color="#428DD3"/>
<stop offset="1" stop-color="#164674"/>
</linearGradient>
<linearGradient id="paint1_linear_769_1097" x1="102.446" y1="109.143" x2="107.814" y2="103.776" gradientUnits="userSpaceOnUse">
<stop stop-color="#F82167"/>
<stop offset="1" stop-color="#931B5D"/>
</linearGradient>
<linearGradient id="paint2_linear_769_1097" x1="162.035" y1="0" x2="162.035" y2="161.033" gradientUnits="userSpaceOnUse">
<stop stop-color="#FE8336"/>
<stop offset="1" stop-color="#F5105A"/>
</linearGradient>
</defs>
</svg>
